<svg width="21px" height="16px" viewBox="0 0 21 16" version="1.1" xmlns="http://www.w3.org/2000/svg" xmlns:xlink="http://www.w3.org/1999/xlink">
    <g id="控件" stroke="none" stroke-width="1" fill="none" fill-rule="evenodd">
        <g id="Sidebar" transform="translate(-224.000000, -766.000000)" fill="#24292F">
            <g id="Links" transform="translate(30.000000, 764.000000)">
                <path d="M195.531,2.625 C194.686,2.625 194,3.31056 194,4.15625 L194,16.4062 C194,17.2519 194.686,17.9375 195.531,17.9375 L213.469,17.9375 C214.314,17.9375 215,17.2519 215,16.4062 L215,4.15625 C215,3.31056 214.314,2.625 213.469,2.625 L195.531,2.625 Z M195.312,4.15625 C195.312,4.03544 195.41,3.9375 195.531,3.9375 L213.469,3.9375 C213.59,3.9375 213.688,4.03544 213.688,4.15625 L213.688,4.90137 L204.622,11.0264 C204.548,11.0764 204.451,11.0764 204.378,11.0264 L195.312,4.9014 L195.312,4.15625 Z M195.312,6.48539 L195.312,16.4062 C195.312,16.5271 195.41,16.625 195.531,16.625 L213.469,16.625 C213.59,16.625 213.688,16.5271 213.688,16.4062 L213.688,6.48539 L205.357,12.1139 C204.839,12.4639 204.161,12.4639 203.643,12.1139 L195.312,6.48539 Z" id="Connect"></path>
            </g>
        </g>
    </g>
</svg>