<svg width="26px" height="24px" viewBox="0 0 26 24" version="1.1" xmlns="http://www.w3.org/2000/svg" xmlns:xlink="http://www.w3.org/1999/xlink">
    <g id="控件" stroke="none" stroke-width="1" fill="none" fill-rule="evenodd">
        <g id="Sidebar" transform="translate(-40.000000, -333.000000)" fill="#5C5C5C">
            <g id="编组" transform="translate(40.000000, 333.000000)">
                <path d="M1.89583,0 C0.848793,0 0,0.84879 0,1.89583 L0,12.18747 C0,13.23457 0.848794,14.08337 1.89583,14.08337 L3.25,14.08337 L3.25,15.75477 C3.25,16.62657 3.95673,17.33337 4.82853,17.33337 C5.24718,17.33337 5.64869,17.16707 5.94472,16.87097 L8.73238,14.08337 L15.4375,14.08337 C16.4845,14.08337 17.3333,13.23457 17.3333,12.18747 L17.3333,1.89583 C17.3333,0.84879 16.4845,0 15.4375,0 L1.89583,0 Z M1.625,1.89583 C1.625,1.74625 1.74626,1.625 1.89583,1.625 L15.4375,1.625 C15.5871,1.625 15.7083,1.74625 15.7083,1.89583 L15.7083,12.18747 C15.7083,12.33707 15.5871,12.45837 15.4375,12.45837 L8.39583,12.45837 C8.18035,12.45837 7.97368,12.54397 7.82131,12.69627 L4.875,15.64257 L4.875,13.27087 C4.875,12.82207 4.51123,12.45837 4.0625,12.45837 L1.89583,12.45837 C1.74626,12.45837 1.625,12.33707 1.625,12.18747 L1.625,1.89583 Z" id="形状"></path>
                <path d="M24.375,8.39583 C24.375,8.24625 24.2537,8.125 24.1042,8.125 L20.3125,8.125 C19.8638,8.125 19.5,7.76123 19.5,7.3125 C19.5,6.86377 19.8638,6.5 20.3125,6.5 L24.1042,6.5 C25.1512,6.5 26,7.34879 26,8.39583 L26,18.68747 C26,19.73457 25.1512,20.58337 24.1042,20.58337 L22.75,20.58337 L22.75,22.25477 C22.75,23.12657 22.0433,23.83337 21.1715,23.83337 C20.7528,23.83337 20.3513,23.66707 20.0553,23.37097 L17.2676,20.58337 L11.6458,20.58337 C10.5988,20.58337 9.75,19.73457 9.75,18.68747 L9.75,17.10097 C9.75,16.65227 10.1138,16.28847 10.5625,16.28847 C11.0112,16.28847 11.375,16.65227 11.375,17.10097 L11.375,18.68747 C11.375,18.83707 11.4963,18.95837 11.6458,18.95837 L17.6042,18.95837 C17.8197,18.95837 18.0263,19.04397 18.1787,19.19627 L21.125,22.14257 L21.125,19.77087 C21.125,19.32207 21.4888,18.95837 21.9375,18.95837 L24.1042,18.95837 C24.2537,18.95837 24.375,18.83707 24.375,18.68747 L24.375,8.39583 Z" id="路径" fill-rule="nonzero"></path>
            </g>
        </g>
    </g>
</svg>