<svg width="21px" height="21px" viewBox="0 0 21 21" version="1.1" xmlns="http://www.w3.org/2000/svg" xmlns:xlink="http://www.w3.org/1999/xlink">
    <g id="控件" stroke="none" stroke-width="1" fill="none" fill-rule="evenodd">
        <g id="Sidebar" transform="translate(-79.000000, -764.000000)" fill="#24292F" fill-rule="nonzero">
            <g id="Links" transform="translate(30.000000, 764.000000)">
                <path d="M59.5,0 C65.299,0 70,4.70101 70,10.5 C70,16.299 65.299,21 59.5,21 C53.701,21 49,16.299 49,10.5 C49,4.70101 53.701,0 59.5,0 Z M59.5,1.43182 C54.4918,1.43182 50.4318,5.49178 50.4318,10.5 C50.4318,15.5082 54.4918,19.5682 59.5,19.5682 C64.5082,19.5682 68.5682,15.5082 68.5682,10.5 C68.5682,5.49178 64.5082,1.43182 59.5,1.43182 Z M59.7386,9.06818 C60.134,9.06818 60.4545,9.38871 60.4545,9.78409 L60.4545,13.8409 L61.1705,13.8409 C61.5658,13.8409 61.8864,14.1614 61.8864,14.5568 C61.8864,14.9522 61.5658,15.2727 61.1705,15.2727 L58.3068,15.2727 C57.9114,15.2727 57.5909,14.9522 57.5909,14.5568 C57.5909,14.1614 57.9114,13.8409 58.3068,13.8409 L59.0227,13.8409 L59.0227,10.5 L58.3068,10.5 C57.9114,10.5 57.5909,10.1795 57.5909,9.78409 C57.5909,9.38871 57.9114,9.06818 58.3068,9.06818 L59.7386,9.06818 Z M59.5,5.25 C60.0272,5.25 60.4545,5.67736 60.4545,6.20455 C60.4545,6.73173 60.0272,7.15909 59.5,7.15909 C58.9728,7.15909 58.5455,6.73173 58.5455,6.20455 C58.5455,5.67736 58.9728,5.25 59.5,5.25 Z" id="Info"></path>
            </g>
        </g>
    </g>
</svg>