<svg width="24px" height="24px" viewBox="0 0 24 24" version="1.1" xmlns="http://www.w3.org/2000/svg" xmlns:xlink="http://www.w3.org/1999/xlink">
    <g id="控件" stroke="none" stroke-width="1" fill="none" fill-rule="evenodd">
        <g id="Search-Bar" transform="translate(-28.000000, -18.000000)" fill="#5C5C5C">
            <g id="Search" transform="translate(28.000000, 18.000000)">
                <path d="M17.9755292,10.271335 C17.9755292,11.2830449 17.7762714,12.2849137 17.3890175,13.2196192 C17.0019665,14.1543247 16.4344269,15.0036051 15.7190674,15.7190662 C15.0036064,16.4343244 14.1543261,17.0019655 13.2196207,17.3892195 C12.2849153,17.7762705 11.2830467,17.9755283 10.2713369,17.9755283 C9.25957645,17.9755283 8.25775855,17.7762705 7.32302273,17.3892195 C6.38831734,17.0019655 5.53899653,16.4343244 4.82359638,15.7190662 C4.10818609,15.0036051 3.5407074,14.1543247 3.15352449,13.2196192 C2.76634158,12.2849137 2.56707371,11.2830449 2.56707371,10.271335 C2.56707371,8.2280198 3.37876485,6.2684152 4.82359638,4.82360376 C6.26841776,3.37876188 8.22802207,2.56708077 10.2713369,2.56708077 C12.3146417,2.56708077 14.274246,3.37876188 15.7190674,4.82360376 C17.1638888,6.2684152 17.9755292,8.2280198 17.9755292,10.271335 Z M16.5716956,18.3864213 C14.5075926,19.9889041 11.9103433,20.74444 9.30880244,20.4993245 C6.707221,20.2543105 4.29683161,19.0269071 2.56836219,17.0672011 C0.839872488,15.1073936 -0.0767627388,12.5625962 0.00503945439,9.95073696 C0.0868588949,7.33891833 1.16096758,4.85643462 3.00869741,3.00870452 C4.85644753,1.16096428 7.33891059,0.0868595029 9.95073899,0.00504005057 C12.5625978,-0.0767672272 15.1073949,0.839869146 17.0672021,2.5683591 C19.0269079,4.29683891 20.2543111,6.70721851 20.499325,9.30881047 C20.7444404,11.9103416 19.9889047,14.5075912 18.3864221,16.5716946 L23.5910662,21.7763394 C23.7172763,21.8939258 23.818427,22.0356586 23.8886339,22.1932183 C23.9588408,22.3506766 23.9964806,22.5207152 23.999825,22.6930874 C24.0026694,22.865561 23.9708125,23.0367157 23.9062871,23.1966089 C23.8417617,23.3565021 23.7455823,23.5016843 23.6236333,23.6236333 C23.5017858,23.7456837 23.3566036,23.8417617 23.196609,23.9062871 C23.0367158,23.9708125 22.8655612,24.0026694 22.693189,23.999825 C22.5207155,23.9964806 22.3505753,23.9588408 22.1932186,23.8886339 C22.0357603,23.818427 21.8939262,23.7172763 21.7763397,23.5910662 L16.5716956,18.3864213 Z" id="Search-Icon"></path>
            </g>
        </g>
    </g>
</svg>