<svg width="22px" height="23px" viewBox="0 0 22 23" version="1.1" xmlns="http://www.w3.org/2000/svg" xmlns:xlink="http://www.w3.org/1999/xlink">
    <g id="控件" stroke="none" stroke-width="1" fill="none" fill-rule="evenodd">
        <g id="Search-Bar" transform="translate(-773.000000, -21.000000)" fill="#5C5C5C">
            <g id="Sections" transform="translate(773.000000, 13.000000)">
                <path d="M10.541687,8.95834 C10.798287,8.95834 11.052987,8.96753 11.305287,8.98561 C12.036987,9.03804 12.594687,9.5762 12.754587,10.2346 L12.754587,10.2346 L13.091987,11.6241 C13.110187,11.6991 13.177787,11.7891 13.306987,11.8358 C13.545187,11.9217 13.778287,12.0185 14.005487,12.1254 C14.129687,12.1838 14.241087,12.168 14.306987,12.1278 L14.306987,12.1278 L15.528187,11.3838 C16.106587,11.0314 16.880987,11.045 17.435487,11.5247 C17.821487,11.8587 18.182987,12.2202 18.516887,12.6061 C18.996687,13.1607 19.010287,13.9351 18.657887,14.5135 L18.657887,14.5135 L17.913887,15.7347 C17.873687,15.8006 17.857887,15.912 17.916287,16.0362 C18.023187,16.2634 18.119887,16.4965 18.205887,16.7347 C18.252487,16.8639 18.342587,16.9315 18.417487,16.9497 L18.417487,16.9497 L19.807087,17.2871 C20.465487,17.4469 21.003587,18.0046 21.056087,18.7364 C21.074187,18.9887 21.083287,19.2433 21.083287,19.5 C21.083287,19.7567 21.074187,20.0113 21.056087,20.2636 C21.003587,20.9954 20.465487,21.5531 19.807087,21.7129 L19.807087,21.7129 L18.417487,22.0503 C18.342587,22.0685 18.252487,22.1361 18.205887,22.2653 C18.119887,22.5036 18.023187,22.7366 17.916287,22.9639 C17.857887,23.088 17.873687,23.1994 17.913887,23.2653 L17.913887,23.2653 L18.657887,24.4866 C19.010287,25.0649 18.996687,25.8394 18.516887,26.3939 C18.182987,26.7799 17.821487,27.1413 17.435487,27.4753 C16.880987,27.955 16.106587,27.9686 15.528187,27.6162 L15.528187,27.6162 L14.306987,26.8722 C14.241087,26.832 14.129687,26.8162 14.005487,26.8746 C13.778287,26.9815 13.545187,27.0783 13.306987,27.1642 C13.177787,27.2109 13.110187,27.3009 13.091987,27.3759 L13.091987,27.3759 L12.754587,28.7654 C12.594687,29.4238 12.036987,29.962 11.305287,30.0144 C11.052987,30.0325 10.798287,30.0417 10.541687,30.0417 C10.284987,30.0417 10.030387,30.0325 9.778087,30.0144 C9.046287,29.962 8.488597,29.4238 8.328727,28.7654 L8.328727,28.7654 L7.991357,27.3759 C7.973147,27.3009 7.905557,27.2109 7.776337,27.1642 C7.538117,27.0783 7.305077,26.9815 7.077817,26.8746 C6.953667,26.8162 6.842267,26.832 6.776327,26.8722 L6.776327,26.8722 L5.555117,27.6162 C4.976777,27.9686 4.202317,27.955 3.647807,27.4753 C3.261817,27.1413 2.900337,26.7799 2.566407,26.3939 C2.086687,25.8394 2.073077,25.0649 2.425447,24.4866 L2.425447,24.4866 L3.169487,23.2653 C3.209657,23.1994 3.225457,23.088 3.167047,22.9639 C3.060137,22.7366 2.963397,22.5036 2.877427,22.2653 C2.830797,22.1361 2.740787,22.0685 2.665797,22.0503 L2.665797,22.0503 L1.276287,21.7129 C0.617857,21.5531 0.079697,20.9954 0.027265,20.2636 C0.009187,20.0113 1.13686838e-13,19.7567 1.13686838e-13,19.5 C1.13686838e-13,19.2433 0.009187,18.9887 0.027265,18.7364 C0.079697,18.0046 0.617857,17.4469 1.276287,17.2871 L1.276287,17.2871 L2.665797,16.9497 C2.740787,16.9315 2.830797,16.8639 2.877427,16.7347 C2.963397,16.4965 3.060137,16.2634 3.167047,16.0362 C3.225457,15.912 3.209657,15.8006 3.169487,15.7347 L3.169487,15.7347 L2.425447,14.5135 C2.073077,13.9351 2.086687,13.1607 2.566407,12.6061 C2.900337,12.2202 3.261817,11.8587 3.647807,11.5248 C4.202317,11.045 4.976777,11.0314 5.555117,11.3838 L5.555117,11.3838 L6.776327,12.1278 C6.842267,12.168 6.953667,12.1838 7.077817,12.1254 C7.305077,12.0185 7.538117,11.9217 7.776337,11.8358 C7.905557,11.7891 7.973147,11.6991 7.991357,11.6241 L7.991357,11.6241 L8.328727,10.2346 C8.488597,9.5762 9.046287,9.03804 9.778087,8.98561 C10.030387,8.96753 10.284987,8.95834 10.541687,8.95834 Z M10.541687,10.3958 C10.319287,10.3958 10.098887,10.4038 9.880787,10.4194 C9.827587,10.4232 9.751487,10.4675 9.725687,10.5738 L9.725687,10.5738 L9.388287,11.9633 C9.242387,12.5641 8.789177,12.9985 8.264287,13.1879 C8.068397,13.2586 7.876727,13.3382 7.689747,13.4261 C7.184447,13.6639 6.556497,13.6772 6.028387,13.3554 L6.028387,13.3554 L4.807187,12.6114 C4.713787,12.5545 4.628677,12.577 4.588307,12.6119 C4.254657,12.9005 3.942187,13.213 3.653547,13.5466 C3.618617,13.587 3.596137,13.6721 3.653047,13.7655 L3.653047,13.7655 L4.397087,14.9867 C4.718847,15.5148 4.705507,16.1428 4.467797,16.6481 C4.379837,16.8351 4.300267,17.0267 4.229587,17.2226 C4.040167,17.7475 3.605747,18.2007 3.004967,18.3466 L3.004967,18.3466 L1.615457,18.684 C1.509137,18.7098 1.464907,18.7859 1.461087,18.8391 C1.445457,19.0573 1.437497,19.2776 1.437497,19.5 C1.437497,19.7224 1.445457,19.9427 1.461087,20.1609 C1.464907,20.2141 1.509137,20.2902 1.615457,20.316 L1.615457,20.316 L3.004967,20.6534 C3.605747,20.7993 4.040167,21.2525 4.229587,21.7774 C4.300267,21.9733 4.379837,22.1649 4.467797,22.3519 C4.705517,22.8572 4.718837,23.4852 4.397087,24.0133 L4.397087,24.0133 L3.653037,25.2345 C3.596137,25.3279 3.618617,25.413 3.653547,25.4534 C3.942187,25.787 4.254657,26.0995 4.588307,26.3881 C4.628667,26.4231 4.713787,26.4455 4.807187,26.3886 L4.807187,26.3886 L6.028387,25.6446 C6.556497,25.3228 7.184447,25.3362 7.689747,25.5739 C7.876727,25.6618 8.068397,25.7414 8.264287,25.8121 C8.789177,26.0015 9.242387,26.4359 9.388287,27.0367 L9.388287,27.0367 L9.725687,28.4262 C9.751487,28.5325 9.827587,28.5768 9.880787,28.5806 C10.098887,28.5962 10.319287,28.6042 10.541687,28.6042 C10.763987,28.6042 10.984387,28.5962 11.202587,28.5806 C11.255787,28.5768 11.331887,28.5325 11.357687,28.4262 L11.357687,28.4262 L11.695087,27.0367 C11.840887,26.4359 12.294187,26.0015 12.819087,25.8121 C13.014887,25.7414 13.206587,25.6618 13.393587,25.5739 C13.898887,25.3362 14.526887,25.3228 15.054987,25.6446 L15.054987,25.6446 L16.276187,26.3886 C16.369587,26.4455 16.454687,26.4231 16.494987,26.3881 C16.828687,26.0995 17.141187,25.787 17.429787,25.4534 C17.464687,25.413 17.487187,25.3279 17.430287,25.2345 L17.430287,25.2345 L16.686287,24.0133 C16.364487,23.4852 16.377787,22.8572 16.615487,22.3519 C16.703487,22.1649 16.783087,21.9733 16.853787,21.7774 C17.043187,21.2525 17.477587,20.7993 18.078387,20.6534 L18.078387,20.6534 L19.467887,20.316 C19.574187,20.2902 19.618387,20.2141 19.622287,20.1609 C19.637887,19.9427 19.645787,19.7224 19.645787,19.5 C19.645787,19.2776 19.637887,19.0573 19.622287,18.8391 C19.618387,18.7859 19.574187,18.7098 19.467887,18.684 L19.467887,18.684 L18.078387,18.3466 C17.477587,18.2007 17.043187,17.7475 16.853787,17.2226 C16.783087,17.0267 16.703487,16.8351 16.615487,16.6481 C16.377787,16.1428 16.364487,15.5148 16.686287,14.9867 L16.686287,14.9867 L17.430287,13.7655 C17.487187,13.6721 17.464687,13.587 17.429787,13.5466 C17.141187,13.213 16.828687,12.9005 16.494987,12.6119 C16.454687,12.577 16.369587,12.5545 16.276187,12.6114 L16.276187,12.6114 L15.054987,13.3554 C14.526787,13.6772 13.898887,13.6639 13.393587,13.4261 C13.206587,13.3382 13.014887,13.2586 12.819087,13.1879 C12.294187,12.9985 11.840887,12.5641 11.695087,11.9633 L11.695087,11.9633 L11.357687,10.5738 C11.331887,10.4675 11.255787,10.4232 11.202587,10.4194 C10.984387,10.4038 10.763987,10.3958 10.541687,10.3958 Z M10.541687,15.6667 C12.658787,15.6667 14.374987,17.3829 14.374987,19.5 C14.374987,21.6171 12.658787,23.3333 10.541687,23.3333 C8.424577,23.3333 6.708337,21.6171 6.708337,19.5 C6.708337,17.3829 8.424577,15.6667 10.541687,15.6667 Z M10.541687,17.1042 C9.218487,17.1042 8.145837,18.1768 8.145837,19.5 C8.145837,20.8232 9.218487,21.8958 10.541687,21.8958 C11.864887,21.8958 12.937487,20.8232 12.937487,19.5 C12.937487,18.1768 11.864887,17.1042 10.541687,17.1042 Z" id="Settings"></path>
            </g>
        </g>
    </g>
</svg>