<svg width="25px" height="28px" viewBox="0 0 25 28" version="1.1" xmlns="http://www.w3.org/2000/svg"
>
    <g id="控件" stroke="none" stroke-width="1" fill="none" fill-rule="evenodd">
        <g id="Applications" transform="translate(-20.000000, -14.000000)" fill="#5C5C5C">
            <g id="编组" transform="translate(20.000000, 14.000000)">
                <path d="M13.1405,0.2832395 C12.4863,-0.0944125 11.6804,-0.0944135 11.0261,0.2832385 L1.0574,6.0379275 C0.40308,6.4156475 0,7.1137575 0,7.8692675 L0,19.3783475 C0,20.1338475 0.40308,20.8319475 1.0574,21.2097475 L11.0261,26.9643475 C11.6803,27.3420475 12.4863,27.3420475 13.1405,26.9643475 L23.1093,21.2097475 C23.7636,20.8319475 24.1667,20.1338475 24.1667,19.3783475 L24.1667,7.8692675 C24.1667,7.1137575 23.7636,6.4156475 23.1093,6.0379275 L13.1405,0.2832395 Z M11.9323,1.8529675 C12.0258,1.7990175 12.1409,1.7990075 12.2344,1.8529675 L21.4481,7.1717975 L12.0834,12.5777475 L2.71861,7.1717775 L11.9323,1.8529675 Z M1.8125,8.7415275 L1.8125,19.3783475 C1.8125,19.4862475 1.87008,19.5860475 1.96355,19.6399475 L11.1771,24.9587475 L11.1771,14.1474475 L1.8125,8.7415275 Z M12.9896,24.9586475 L22.2031,19.6399475 C22.2966,19.5860475 22.3542,19.4862475 22.3542,19.3783475 L22.3542,8.7415575 L12.9896,14.1474475 L12.9896,24.9586475 Z"
                      id="形状"></path>
            </g>
        </g>
    </g>
</svg>