<svg width="22px" height="23px" viewBox="0 0 22 23" version="1.1" xmlns="http://www.w3.org/2000/svg"
>
    <g id="控件" stroke="none" stroke-width="1" fill="none" fill-rule="evenodd">
        <g id="App-OnSelect" transform="translate(-20.000000, -16.000000)" fill="#5C5C5C">
            <g id="icon" transform="translate(20.000000, 16.000000)">
                <path d="M9.7024,0.430455 C10.3788,-0.143485 11.3712,-0.143485 12.0476,0.430455 L21.1101,8.119885 C21.516,8.464185 21.75,8.969585 21.75,9.501885 L21.75,20.863585 C21.75,21.864585 20.9385,22.676085 19.9375,22.676085 L12.9896,22.676085 C12.4891,22.676085 12.0833,22.270285 12.0833,21.769785 L12.0833,14.217785 L9.6667,14.217785 L9.6667,21.769785 C9.6667,22.270285 9.2609,22.676085 8.7604,22.676085 L1.8125,22.676085 C0.81148,22.676085 0,21.864585 0,20.863585 L0,9.501885 C0,8.969585 0.23398,8.464185 0.63985,8.119885 L9.7024,0.430455 Z M10.875,1.812495 L1.8125,9.501885 L1.8125,20.863585 L7.8542,20.863585 L7.8542,13.311485 C7.8542,12.810985 8.2599,12.405285 8.7604,12.405285 L12.9896,12.405285 C13.4901,12.405285 13.8958,12.810985 13.8958,13.311485 L13.8958,20.863585 L19.9375,20.863585 L19.9375,9.501885 L10.875,1.812495 Z"></path>
            </g>
        </g>
    </g>
</svg>