<svg width="21px" height="17px" viewBox="0 0 21 17" version="1.1" xmlns="http://www.w3.org/2000/svg"
>
    <g id="控件" stroke="none" stroke-width="1" fill="none" fill-rule="evenodd">
        <g id="Sidebar" transform="translate(-30.000000, -766.000000)" fill="#24292F">
            <g id="Links" transform="translate(30.000000, 764.000000)">
                <path d="M0,3.28125 C0,2.91881 0.293813,2.625 0.65625,2.625 L7.21601,2.625 C8.5864,2.625 9.79338,3.3251 10.4986,4.38726 C11.2039,3.32515 12.4108,2.625 13.7812,2.625 L20.3438,2.625 C20.7062,2.625 21,2.91881 21,3.28125 L21,16.461 C21,16.6358 20.9302,16.8034 20.8062,16.9266 C20.6822,17.0498 20.5141,17.1184 20.3393,17.1172 L13.6177,17.0718 C12.9154,17.067 12.2404,17.3439 11.7438,17.8405 L10.964,18.6203 C10.7078,18.8766 10.2922,18.8766 10.036,18.6203 L9.24702,17.8313 C8.75473,17.3391 8.08706,17.0625 7.39086,17.0625 L0.65625,17.0625 C0.293813,17.0625 0,16.7687 0,16.4062 L0,3.28125 Z M9.84101,6.56031 C9.83981,5.11142 8.66491,3.9375 7.21601,3.9375 L1.3125,3.9375 L1.3125,15.75 L7.39086,15.75 C8.28622,15.75 9.15014,16.055 9.84375,16.6073 L9.84101,6.56031 Z M11.1562,16.6092 L11.1562,6.5625 C11.1562,5.11275 12.3315,3.9375 13.7812,3.9375 L19.6875,3.9375 L19.6875,15.8003 L13.6266,15.7593 C12.726,15.7532 11.8554,16.0559 11.1562,16.6092 Z"
                      id="Documentation"></path>
            </g>
        </g>
    </g>
</svg>