<svg width="21px" height="20px" viewBox="0 0 21 20" version="1.1" xmlns="http://www.w3.org/2000/svg"
>
    <g id="控件" stroke="none" stroke-width="1" fill="none" fill-rule="evenodd">
        <g id="Search-Bar" transform="translate(-816.000000, -22.000000)" fill="#5C5C5C">
            <g id="Sections" transform="translate(773.000000, 13.000000)">
                <path d="M45.095387,12.9286 L43.575187,11.4084 C43.378287,11.2116 43.041687,11.351 43.041687,11.6294 L43.041687,16.1875 C43.041687,16.3601 43.181587,16.5 43.354187,16.5 L47.912287,16.5 C48.190687,16.5 48.330087,16.1634 48.133187,15.9665 L46.435387,14.2687 C47.910487,12.2127 50.320587,10.875 53.041787,10.875 C57.529087,10.875 61.166787,14.5127 61.166787,19 C61.166787,23.4874 57.529087,27.125 53.041787,27.125 C48.838887,27.125 45.380287,23.933 44.959787,19.8417 C44.906787,19.3266 44.446387,18.952 43.931287,19.0049 C43.416287,19.0578 43.041687,19.5183 43.094587,20.0333 C43.612387,25.0711 47.867587,29 53.041787,29 C58.564587,29 63.041787,24.5229 63.041787,19 C63.041787,13.4771 58.564587,9 53.041787,9 C49.801287,9 46.922187,10.5413 45.095387,12.9286 Z M52.729187,14 C53.246987,14 53.666687,14.4197 53.666687,14.9375 L53.666687,18.6778 L56.202287,19.6921 C56.683087,19.8844 56.916887,20.4299 56.724687,20.9107 C56.532287,21.3914 55.986687,21.6252 55.505987,21.4329 L52.380987,20.1829 C52.025087,20.0406 51.791687,19.6959 51.791687,19.3125 L51.791687,14.9375 C51.791687,14.4197 52.211387,14 52.729187,14 Z"
                      id="History"></path>
            </g>
        </g>
    </g>
</svg>