<svg width="39px" height="39px" viewBox="0 0 39 39" version="1.1" xmlns="http://www.w3.org/2000/svg"
>
    <g id="控件" stroke="none" stroke-width="1" fill="none" fill-rule="evenodd">
        <g id="Apps" transform="translate(-31.000000, -32.000000)" fill="#24292F">
            <g id="编组" transform="translate(30.000000, 32.000000)">
                <path d="M2.255194,21.454135 C1.059214,20.258135 1.059214,18.319135 2.255194,17.123135 L18.481334,0.896985 C19.677334,-0.298995 21.616334,-0.298995 22.812334,0.896985 L39.038534,17.123135 C40.234434,18.319135 40.234434,20.258135 39.038534,21.454135 L22.812334,37.680235 C21.616334,38.876235 19.677334,38.876235 18.481334,37.680335 L2.255194,21.454135 Z M4.111344,18.979235 C3.940494,19.150135 3.940494,19.427135 4.111344,19.598035 L20.337534,35.824135 C20.508334,35.994935 20.785334,35.994935 20.956234,35.824135 L37.182334,19.598035 C37.353234,19.427135 37.353234,19.150135 37.182334,18.979235 L20.956234,2.753135 C20.785334,2.582285 20.508334,2.582285 20.337534,2.753135 L4.111344,18.979235 Z"
                      id="形状"></path>
            </g>
        </g>
    </g>
</svg>