<svg width="18px" height="20px" viewBox="0 0 18 20" version="1.1" xmlns="http://www.w3.org/2000/svg"
>
    <g id="控件" stroke="none" stroke-width="1" fill="none" fill-rule="evenodd">
        <g id="Search-Bar" transform="translate(-858.000000, -22.000000)" fill="#5C5C5C">
            <g id="Sections" transform="translate(773.000000, 13.000000)">
                <path d="M94.041687,9 C90.589887,9 87.791687,11.7982 87.791687,15.25 L87.791687,18.934 C87.791687,18.9957 87.773387,19.056 87.739187,19.1074 L85.610287,22.3008 C85.402487,22.6124 85.291687,22.9785 85.291687,23.353 C85.291687,24.4007 86.140987,25.25 87.188687,25.25 L100.894687,25.25 C101.942687,25.25 102.791687,24.4007 102.791687,23.353 C102.791687,22.9785 102.680687,22.6124 102.472687,22.3008 L100.343687,19.1074 C100.309687,19.056 100.291687,18.9957 100.291687,18.934 L100.291687,15.25 C100.291687,11.7982 97.493387,9 94.041687,9 Z M89.666687,15.25 C89.666687,12.8337 91.625387,10.875 94.041687,10.875 C96.457887,10.875 98.416687,12.8337 98.416687,15.25 L98.416687,18.934 C98.416687,19.3659 98.544587,19.7881 98.784087,20.1474 L100.912687,23.3407 C100.915687,23.3444 100.916687,23.3486 100.916687,23.353 C100.916687,23.3558 100.915687,23.3591 100.915687,23.3591 L100.915687,23.3612 C100.915687,23.3612 100.912687,23.3659 100.909687,23.3685 C100.907687,23.3713 100.902687,23.3736 100.902687,23.3736 C100.902687,23.3736 100.899687,23.375 100.894687,23.375 L87.188687,23.375 C87.183887,23.375 87.180387,23.3736 87.180387,23.3736 C87.180387,23.3736 87.175787,23.3713 87.173087,23.3685 C87.170487,23.3659 87.167987,23.3612 87.167987,23.3612 C87.167987,23.3612 87.166687,23.3577 87.166687,23.353 C87.166687,23.3486 87.167987,23.3444 87.170387,23.3407 L89.299287,20.1474 C89.538887,19.7881 89.666687,19.3659 89.666687,18.934 L89.666687,15.25 Z M96.522387,26.8119 C96.368887,28.0454 95.316787,29 94.041687,29 C92.766587,29 91.714487,28.0454 91.560987,26.8119 C91.539587,26.6406 91.681587,26.5 91.854187,26.5 L96.229187,26.5 C96.401787,26.5 96.543687,26.6406 96.522387,26.8119 Z"
                      id="Messages"></path>
            </g>
        </g>
    </g>
</svg>