<svg width="24px" height="25px" viewBox="0 0 24 25" version="1.1" xmlns="http://www.w3.org/2000/svg"
>
    <g id="控件" stroke="none" stroke-width="1" fill="none" fill-rule="evenodd">
        <g id="Sidebar" transform="translate(-41.000000, -266.000000)" fill="#5C5C5C">
            <g id="编组" transform="translate(41.000000, 266.000000)">
                <path d="M10.4769742,0.30612 C11.1206742,-0.10204 11.9420742,-0.10204 12.5856742,0.30612 L22.0162742,6.28649 C23.2354742,7.05964 23.2354742,8.83856 22.0162742,9.61176 L12.5856742,15.59206 C11.9420742,16.00026 11.1206742,16.00026 10.4769742,15.59206 L1.04643423,9.61176 C-0.172765771,8.83856 -0.172765771,7.05964 1.04643423,6.28649 L10.4769742,0.30612 Z M11.6819742,1.73123 C11.5900742,1.67292 11.4726742,1.67292 11.3807742,1.73123 L1.95016423,7.71159 C1.77599423,7.82204 1.77599423,8.07618 1.95016423,8.18663 L11.3807742,14.16696 C11.4726742,14.22526 11.5900742,14.22526 11.6819742,14.16696 L21.1125742,8.18663 C21.2867742,8.07618 21.2867742,7.82204 21.1125742,7.71159 L11.6819742,1.73123 Z"
                      id="形状"></path>
                <path d="M0.131304229,12.53226 C0.380864229,12.13876 0.902194229,12.02206 1.29572423,12.27166 L11.3807742,18.66696 C11.4726742,18.72526 11.5900742,18.72526 11.6819742,18.66696 L21.7669742,12.27166 C22.1605742,12.02206 22.6818742,12.13876 22.9313742,12.53226 C23.1809742,12.92586 23.0642742,13.44716 22.6706742,13.69676 L12.5856742,20.09206 C11.9420742,20.50026 11.1206742,20.50026 10.4769742,20.09206 L0.391994229,13.69676 C-0.00153577133,13.44716 -0.118255771,12.92586 0.131304229,12.53226 Z"
                      id="路径"></path>
                <path d="M0.131304229,17.03226 C0.380864229,16.63876 0.902194229,16.52206 1.29572423,16.77166 L11.3807742,23.16696 C11.4726742,23.22526 11.5900742,23.22526 11.6819742,23.16696 L21.7669742,16.77166 C22.1605742,16.52206 22.6818742,16.63876 22.9313742,17.03226 C23.1809742,17.42586 23.0642742,17.94716 22.6706742,18.19676 L12.5856742,24.59206 C11.9420742,25.00026 11.1206742,25.00026 10.4769742,24.59206 L0.391994229,18.19676 C-0.00153577133,17.94716 -0.118255771,17.42586 0.131304229,17.03226 Z"
                      id="路径"></path>
            </g>
        </g>
    </g>
</svg>