<svg width="17px" height="19px" viewBox="0 0 17 19" version="1.1" xmlns="http://www.w3.org/2000/svg"
>
    <g id="控件" stroke="none" stroke-width="1" fill="none" fill-rule="evenodd">
        <g id="Sidebar" transform="translate(-177.000000, -765.000000)" fill="#24292F">
            <g id="Links" transform="translate(30.000000, 764.000000)">
                <path d="M163.5,4.8125 C163.5,6.50387 162.129,7.875 160.438,7.875 C159.552,7.875 158.755,7.4995 158.196,6.89911 L153.722,9.54276 C153.821,9.84392 153.875,10.1657 153.875,10.5 C153.875,10.8343 153.821,11.1561 153.722,11.4572 L158.196,14.1007 C158.755,13.5004 159.552,13.125 160.438,13.125 C162.129,13.125 163.5,14.4961 163.5,16.1875 C163.5,17.8789 162.129,19.25 160.438,19.25 C158.746,19.25 157.375,17.8789 157.375,16.1875 C157.375,15.8532 157.429,15.5314 157.528,15.2303 L153.054,12.5868 C152.495,13.1871 151.698,13.5625 150.812,13.5625 C149.121,13.5625 147.75,12.1914 147.75,10.5 C147.75,8.80863 149.121,7.4375 150.812,7.4375 C151.698,7.4375 152.495,7.81293 153.054,8.41322 L157.528,5.76974 L157.528,5.77078 C157.429,5.46932 157.375,5.14718 157.375,4.8125 C157.375,3.12113 158.746,1.75 160.438,1.75 C162.129,1.75 163.5,3.12113 163.5,4.8125 Z M162.188,4.8125 C162.188,5.779 161.404,6.5625 160.438,6.5625 C159.471,6.5625 158.688,5.779 158.688,4.8125 C158.688,3.846 159.471,3.0625 160.438,3.0625 C161.404,3.0625 162.188,3.846 162.188,4.8125 Z M150.812,12.25 C151.779,12.25 152.562,11.4665 152.562,10.5 C152.562,9.5335 151.779,8.75 150.812,8.75 C149.846,8.75 149.062,9.5335 149.062,10.5 C149.062,11.4665 149.846,12.25 150.812,12.25 Z M162.188,16.1875 C162.188,17.154 161.404,17.9375 160.438,17.9375 C159.471,17.9375 158.688,17.154 158.688,16.1875 C158.688,15.221 159.471,14.4375 160.438,14.4375 C161.404,14.4375 162.188,15.221 162.188,16.1875 Z"
                      id="Share"></path>
            </g>
        </g>
    </g>
</svg>