<svg width="21px" height="21px" viewBox="0 0 21 21" version="1.1" xmlns="http://www.w3.org/2000/svg"
>
    <g id="控件" stroke="none" stroke-width="1" fill="none" fill-rule="evenodd">
        <g id="Sidebar" transform="translate(-128.000000, -764.000000)" fill="#24292F" fill-rule="nonzero">
            <g id="Links" transform="translate(30.000000, 764.000000)">
                <path d="M108.5,0.875 C113.816,0.875 118.125,5.18426 118.125,10.5 C118.125,15.8157 113.816,20.125 108.5,20.125 C103.184,20.125 98.875,15.8157 98.875,10.5 C98.875,5.18426 103.184,0.875 108.5,0.875 Z M108.5,2.1875 C103.909,2.1875 100.188,5.90913 100.188,10.5 C100.188,15.0909 103.909,18.8125 108.5,18.8125 C113.091,18.8125 116.812,15.0909 116.812,10.5 C116.812,5.90913 113.091,2.1875 108.5,2.1875 Z M108.5,14 C108.983,14 109.375,14.3918 109.375,14.875 C109.375,15.3582 108.983,15.75 108.5,15.75 C108.017,15.75 107.625,15.3582 107.625,14.875 C107.625,14.3918 108.017,14 108.5,14 Z M108.5,5.6875 C109.076,5.6875 109.698,5.85786 110.193,6.22891 C110.705,6.6131 111.07,7.20992 111.07,7.98437 C111.07,8.88857 110.622,9.48908 110.172,9.92287 C110.006,10.0826 109.823,10.2354 109.665,10.3673 C109.62,10.405 109.577,10.4412 109.537,10.4751 C109.377,10.6105 109.252,10.724 109.156,10.8325 L109.156,12.0312 C109.156,12.3937 108.862,12.6875 108.5,12.6875 C108.138,12.6875 107.844,12.3937 107.844,12.0312 L107.844,10.7419 C107.844,10.5353 107.902,10.301 108.06,10.0987 C108.252,9.85311 108.485,9.64641 108.688,9.47394 C108.744,9.42676 108.797,9.38233 108.848,9.33957 L108.849,9.33885 C108.999,9.21334 109.132,9.10221 109.261,8.97818 C109.582,8.66811 109.758,8.38663 109.758,7.98437 C109.758,7.66508 109.622,7.44159 109.405,7.27891 C109.171,7.10308 108.836,7 108.5,7 C108.068,7 107.788,7.10612 107.599,7.23158 C107.407,7.35977 107.271,7.5354 107.173,7.73098 C107.011,8.05516 106.617,8.18655 106.292,8.02447 C105.968,7.86238 105.837,7.46819 105.999,7.14402 C106.175,6.79273 106.448,6.42148 106.871,6.13951 C107.298,5.85481 107.838,5.6875 108.5,5.6875 Z"
                      id="Supports"></path>
            </g>
        </g>
    </g>
</svg>