<svg width="36px" height="35px" viewBox="0 0 36 35" version="1.1" xmlns="http://www.w3.org/2000/svg"
>
    <g id="控件" stroke="none" stroke-width="1" fill="none" fill-rule="evenodd">
        <g id="Search-Bar" transform="translate(-899.000000, -13.000000)" fill="#5C5C5C">
            <g id="Sections" transform="translate(773.000000, 13.000000)">
                <path d="M143.541687,35 C153.206687,35 161.041687,27.165 161.041687,17.5 C161.041687,7.83502 153.206687,0 143.541687,0 C133.876687,0 126.041687,7.83502 126.041687,17.5 C126.041687,27.165 133.876687,35 143.541687,35 Z M145.394687,17.1828 C147.504687,16.4236 149.012687,14.4047 149.012687,12.0335 C149.012687,9.01196 146.563687,6.5625 143.541687,6.5625 C140.519687,6.5625 138.070687,9.01196 138.070687,12.0335 C138.070687,14.4047 139.578687,16.4236 141.688687,17.1828 C138.008687,18.0701 134.791687,21.3845 134.791687,24.0625 C134.791687,24.9255 135.107687,26.2381 136.979687,26.2381 L150.104687,26.2381 C151.975687,26.2381 152.291687,24.9255 152.291687,24.0625 C152.291687,21.3845 149.074687,18.0701 145.394687,17.1828 Z"
                      id="User"></path>
            </g>
        </g>
    </g>
</svg>