<svg width="20px" height="20px" viewBox="0 0 20 20" version="1.1" xmlns="http://www.w3.org/2000/svg"
>
    <g id="控件" stroke="none" stroke-width="1" fill="none" fill-rule="evenodd">
        <g id="Apps" transform="translate(-30.000000, -187.000000)" fill="#5C5C5C">
            <g id="编组" transform="translate(30.000000, 32.000000)">
                <path d="M13.775234,163.438635 C14.019334,163.194635 14.019334,162.798635 13.775234,162.554635 C13.531234,162.310635 13.135434,162.310635 12.891434,162.554635 L8.333334,167.112635 L6.275274,165.054635 C6.031194,164.810635 5.635474,164.810635 5.391394,165.054635 C5.147314,165.298635 5.147314,165.694635 5.391394,165.938635 L7.891394,168.438635 C8.135474,168.682635 8.531194,168.682635 8.775274,168.438635 L13.775234,163.438635 Z"
                      id="路径" fill-rule="nonzero"></path>
                <path d="M11.363334,156.288635 C10.304034,155.510635 8.862604,155.510635 7.803324,156.288635 L6.657214,157.129635 C6.428854,157.297635 6.163354,157.407635 5.883334,157.450635 L4.477954,157.665635 C3.179064,157.864635 2.159784,158.884635 1.960644,160.183635 L1.745184,161.588635 C1.702244,161.868635 1.592274,162.134635 1.424624,162.362635 L0.583233,163.508635 C-0.194411,164.567635 -0.194411,166.009635 0.583233,167.068635 L1.424624,168.214635 C1.592274,168.442635 1.702244,168.708635 1.745184,168.988635 L1.960644,170.393635 C2.159784,171.692635 3.179064,172.712635 4.477954,172.911635 L5.883334,173.126635 C6.163354,173.169635 6.428854,173.279635 6.657214,173.447635 L7.803324,174.288635 C8.862594,175.066635 10.304034,175.066635 11.363334,174.288635 L12.509434,173.447635 C12.737834,173.279635 13.003334,173.169635 13.283334,173.126635 L14.688734,172.911635 C15.987634,172.712635 17.006834,171.692635 17.206034,170.393635 L17.421534,168.988635 C17.464434,168.708635 17.574434,168.442635 17.742034,168.214635 L18.583434,167.068635 C19.361034,166.009635 19.361034,164.567635 18.583434,163.508635 L17.742034,162.362635 C17.574434,162.134635 17.464434,161.868635 17.421534,161.588635 L17.206034,160.183635 C17.006834,158.884635 15.987634,157.864635 14.688734,157.665635 L13.283334,157.450635 C13.003334,157.407635 12.737834,157.297635 12.509434,157.129635 L11.363334,156.288635 Z M8.543054,157.296635 C9.162114,156.841635 10.004534,156.841635 10.623634,157.296635 L11.769734,158.137635 C12.160434,158.424635 12.614734,158.612635 13.093934,158.685635 L14.499234,158.901635 C15.258434,159.017635 15.854034,159.613635 15.970434,160.372635 L16.185934,161.777635 C16.259434,162.257635 16.447534,162.711635 16.734434,163.102635 L17.575834,164.248635 C18.030334,164.867635 18.030334,165.709635 17.575834,166.328635 L16.734434,167.474635 C16.447534,167.865635 16.259434,168.319635 16.185934,168.799635 L15.970434,170.204635 C15.854034,170.963635 15.258434,171.559635 14.499234,171.675635 L13.093934,171.891635 C12.614734,171.964635 12.160434,172.152635 11.769734,172.439635 L10.623634,173.280635 C10.004534,173.735635 9.162114,173.735635 8.543054,173.280635 L7.396944,172.439635 C7.006194,172.152635 6.551904,171.964635 6.072764,171.891635 L4.667384,171.675635 C3.908284,171.559635 3.312594,170.963635 3.196204,170.204635 L2.980744,168.799635 C2.907284,168.319635 2.719114,167.865635 2.432254,167.474635 L1.590854,166.328635 C1.136384,165.709635 1.136384,164.867635 1.590854,164.248635 L2.432254,163.102635 C2.719114,162.711635 2.907284,162.257635 2.980744,161.777635 L3.196204,160.372635 C3.312594,159.613635 3.908284,159.017635 4.667384,158.901635 L6.072764,158.685635 C6.551904,158.612635 7.006194,158.424635 7.396944,158.137635 L8.543054,157.296635 Z"
                      id="形状"></path>
            </g>
        </g>
    </g>
</svg>