<svg width="16px" height="13px" viewBox="0 0 16 13" version="1.1" xmlns="http://www.w3.org/2000/svg"
>
    <g id="控件" stroke="none" stroke-width="1" fill="none" fill-rule="evenodd">
        <g id="Apps" transform="translate(-111.000000, -191.000000)" fill="#5C5C5C">
            <g id="编组" transform="translate(30.000000, 32.000000)">
                <path d="M81.083334,160.496635 C81.083334,160.151635 81.363134,159.871635 81.708334,159.871635 L92.958334,159.871635 C93.303534,159.871635 93.583334,160.151635 93.583334,160.496635 C93.583334,160.842635 93.303534,161.121635 92.958334,161.121635 L81.708334,161.121635 C81.363134,161.121635 81.083334,160.842635 81.083334,160.496635 Z M81.708334,164.455635 C82.053534,164.455635 82.333334,164.734635 82.333334,165.080635 L82.333334,170.913635 C82.333334,171.258635 82.053534,171.538635 81.708334,171.538635 C81.363134,171.538635 81.083334,171.258635 81.083334,170.913635 L81.083334,165.080635 C81.083334,164.734635 81.363134,164.455635 81.708334,164.455635 Z M85.250034,165.548635 C85.250034,165.203635 85.529834,164.923635 85.875034,164.923635 L95.458334,164.923635 C95.803534,164.923635 96.083334,165.203635 96.083334,165.548635 C96.083334,165.894635 95.803534,166.173635 95.458334,166.173635 L85.875034,166.173635 C85.529834,166.173635 85.250034,165.894635 85.250034,165.548635 Z M85.250034,170.496635 C85.250034,170.151635 85.529834,169.871635 85.875034,169.871635 L95.458334,169.871635 C95.803534,169.871635 96.083334,170.151635 96.083334,170.496635 C96.083334,170.842635 95.803534,171.121635 95.458334,171.121635 L85.875034,171.121635 C85.529834,171.121635 85.250034,170.842635 85.250034,170.496635 Z"
                      id="形状"></path>
            </g>
        </g>
    </g>
</svg>