<svg width="16px" height="19px" viewBox="0 0 16 19" version="1.1" xmlns="http://www.w3.org/2000/svg"
>
    <g id="控件" stroke="none" stroke-width="1" fill="none" fill-rule="evenodd">
        <g id="Apps" transform="translate(-72.000000, -188.000000)" fill="#5C5C5C">
            <g id="编组" transform="translate(30.000000, 32.000000)">
                <path d="M50.000034,160.913635 C50.000034,160.568635 49.720134,160.288635 49.375034,160.288635 C49.029834,160.288635 48.750034,160.568635 48.750034,160.913635 L48.750034,162.788635 L46.875034,162.788635 C46.529834,162.788635 46.250034,163.068635 46.250034,163.413635 C46.250034,163.758635 46.529834,164.038635 46.875034,164.038635 L48.750034,164.038635 L48.750034,165.913635 C48.750034,166.258635 49.029834,166.538635 49.375034,166.538635 C49.720134,166.538635 50.000034,166.258635 50.000034,165.913635 L50.000034,164.038635 L51.875034,164.038635 C52.220134,164.038635 52.500034,163.758635 52.500034,163.413635 C52.500034,163.068635 52.220134,162.788635 51.875034,162.788635 L50.000034,162.788635 L50.000034,160.913635 Z"
                      id="路径" fill-rule="nonzero"></path>
                <path d="M46.875034,168.621635 C46.529834,168.621635 46.250034,168.901635 46.250034,169.246635 C46.250034,169.592635 46.529834,169.871635 46.875034,169.871635 L51.875034,169.871635 C52.220134,169.871635 52.500034,169.592635 52.500034,169.246635 C52.500034,168.901635 52.220134,168.621635 51.875034,168.621635 L46.875034,168.621635 Z"
                      id="路径" fill-rule="nonzero"></path>
                <path d="M43.750034,156.121635 C42.829534,156.121635 42.083334,156.868635 42.083334,157.788635 L42.083334,172.788635 C42.083334,173.708635 42.829534,174.455635 43.750034,174.455635 L55.416634,174.455635 C56.337134,174.455635 57.083334,173.708635 57.083334,172.788635 L57.083334,161.136635 C57.083334,160.694635 56.907734,160.270635 56.595134,159.958635 L53.247034,156.609635 C52.934434,156.297635 52.510534,156.121635 52.068534,156.121635 L43.750034,156.121635 Z M43.333334,157.788635 C43.333334,157.558635 43.519834,157.371635 43.750034,157.371635 L52.068534,157.371635 C52.179034,157.371635 52.285034,157.415635 52.363134,157.493635 L55.711334,160.842635 C55.789434,160.920635 55.833334,161.026635 55.833334,161.136635 L55.833334,172.788635 C55.833334,173.018635 55.646834,173.205635 55.416634,173.205635 L43.750034,173.205635 C43.519834,173.205635 43.333334,173.018635 43.333334,172.788635 L43.333334,157.788635 Z"
                      id="形状"></path>
            </g>
        </g>
    </g>
</svg>