<svg width="15px" height="18px" viewBox="0 0 15 18" version="1.1" xmlns="http://www.w3.org/2000/svg"
>
    <g id="控件" stroke="none" stroke-width="1" fill="none" fill-rule="evenodd">
        <g id="Apps" transform="translate(-301.000000, -188.000000)" fill="#5C5C5C">
            <g id="编组" transform="translate(30.000000, 32.000000)">
                <path d="M279.025334,156.305635 C278.907334,156.188635 278.749334,156.122635 278.583334,156.122635 C278.417334,156.122635 278.259334,156.188635 278.141334,156.305635 L275.433334,159.013635 C275.323334,159.131635 275.263334,159.288635 275.265286,159.450635 C275.268334,159.612635 275.334334,159.767635 275.448334,159.881635 C275.563334,159.996635 275.717334,160.061635 275.879334,160.064635 C276.041334,160.067635 276.198334,160.007635 276.316334,159.896635 L277.958334,158.255635 L277.958334,167.163635 C277.958334,167.329635 278.024334,167.488635 278.141334,167.605635 C278.258334,167.722635 278.417334,167.788635 278.583334,167.788635 C278.749334,167.788635 278.908334,167.722635 279.025334,167.605635 C279.142334,167.488635 279.208334,167.329635 279.208334,167.163635 L279.208334,158.255635 L280.850334,159.896635 C280.907334,159.958635 280.976334,160.007635 281.053334,160.041635 C281.129334,160.075635 281.212334,160.094635 281.296334,160.095635 C281.380334,160.097635 281.463334,160.081635 281.541334,160.050635 C281.619334,160.018635 281.690334,159.972635 281.749334,159.912635 C281.808334,159.853635 281.855334,159.782635 281.886334,159.704635 C281.918334,159.627635 281.933334,159.543635 281.932381,159.459635 C281.930334,159.375635 281.912334,159.293635 281.878334,159.216635 C281.844334,159.139635 281.794334,159.070635 281.733334,159.013635 L279.025334,156.305635 Z M273.166334,163.413635 C273.166334,163.358635 273.188334,163.305635 273.227334,163.266635 C273.266334,163.227635 273.319334,163.205635 273.375334,163.205635 L275.458334,163.205635 C275.624334,163.205635 275.783334,163.139635 275.900334,163.022635 C276.017334,162.904635 276.083334,162.745635 276.083334,162.580635 C276.083334,162.414635 276.017334,162.255635 275.900334,162.138635 C275.783334,162.021635 275.624334,161.955635 275.458334,161.955635 L273.375334,161.955635 C272.988334,161.955635 272.617334,162.108635 272.343334,162.382635 C272.070334,162.655635 271.916334,163.026635 271.916334,163.413635 L271.916334,172.163635 C271.916334,172.968635 272.570334,173.621635 273.375334,173.621635 L283.791334,173.621635 C284.178334,173.621635 284.549334,173.468635 284.823334,173.194635 C285.096334,172.921635 285.250334,172.550635 285.250334,172.163635 L285.250334,163.413635 C285.250334,163.026635 285.096334,162.655635 284.823334,162.382635 C284.549334,162.108635 284.178334,161.955635 283.791334,161.955635 L281.708334,161.955635 C281.542334,161.955635 281.383334,162.021635 281.266334,162.138635 C281.149334,162.255635 281.083334,162.414635 281.083334,162.580635 C281.083334,162.745635 281.149334,162.904635 281.266334,163.022635 C281.383334,163.139635 281.542334,163.205635 281.708334,163.205635 L283.791334,163.205635 C283.847334,163.205635 283.900334,163.227635 283.939334,163.266635 C283.978334,163.305635 284.000334,163.358635 284.000334,163.413635 L284.000334,172.163635 C284.000334,172.218635 283.978334,172.271635 283.939334,172.310635 C283.900334,172.349635 283.847334,172.371635 283.791334,172.371635 L273.375334,172.371635 C273.319334,172.371635 273.266334,172.349635 273.227334,172.310635 C273.188334,172.271635 273.166334,172.218635 273.166334,172.163635 L273.166334,163.413635 Z"
                      id="形状"></path>
            </g>
        </g>
    </g>
</svg>